<svg width="314" height="295" viewBox="0 0 314 295" fill="none" xmlns="http://www.w3.org/2000/svg">
<path d="M266 166L132.781 59.4251C121.308 50.2473 119.459 33.5024 128.653 22.0429C137.792 10.6518 154.409 8.76882 165.865 17.8264L266 97L266 166Z" fill="#5B003C"/>
<path d="M266.127 261.06L31.6215 88.0904C14.1575 75.209 10.4424 50.6092 23.3237 33.1451C36.6356 15.0973 62.3282 11.8333 79.7301 25.9791L266.127 177.5L266.127 261.06Z" fill="#320021" fill-opacity="0.96"/>
<path d="M266.409 294.634L167.158 221.427C155.536 212.855 153.064 196.485 161.636 184.864C170.37 173.023 187.15 170.717 198.754 179.763L266.409 232.5L266.409 294.634Z" fill="#5B003C" fill-opacity="0.78"/>
</svg>
