<svg width="89" height="25" viewBox="0 0 89 25" fill="none" xmlns="http://www.w3.org/2000/svg">
<path d="M1.18529 19.4944V9.88764H13.3741V9.32584H1.18529V0.561798H14.1449V0H0.61438V20.0562H14.259V19.4944H1.18529ZM25.249 5.61798L20.1965 12.1629L15.2581 5.61798H14.5159L19.8539 12.5843L14.0021 20.0562H14.6872L20.1965 13.0056L25.7342 20.0562H26.4479L20.5675 12.5843L25.9341 5.61798H25.249ZM28.1606 25V16.0112H28.2177C28.5602 17.3221 29.2358 18.3755 30.2444 19.1713C31.253 19.9672 32.5375 20.3652 34.098 20.3652C35.1066 20.3652 36.001 20.1639 36.7813 19.7612C37.5615 19.3586 38.2133 18.8109 38.7366 18.118C39.26 17.4251 39.6596 16.6199 39.9355 15.7022C40.2115 14.7846 40.3494 13.8202 40.3494 12.809C40.3494 11.7228 40.2067 10.721 39.9213 9.80337C39.6358 8.88576 39.2219 8.08989 38.6795 7.41573C38.1372 6.74157 37.4806 6.21723 36.7099 5.8427C35.9392 5.46816 35.0686 5.2809 34.098 5.2809C33.3558 5.2809 32.666 5.38858 32.0285 5.60393C31.391 5.81929 30.8248 6.12359 30.33 6.51685C29.8353 6.91011 29.4071 7.37359 29.0455 7.9073C28.6839 8.44101 28.408 9.02621 28.2177 9.66292H28.1606V5.61798H27.5897V25H28.1606ZM34.098 19.8315C32.3092 19.8315 30.8724 19.2275 29.7877 18.0197C28.703 16.8118 28.1606 15.0749 28.1606 12.809C28.1606 11.8727 28.2938 10.9831 28.5602 10.1404C28.8267 9.29775 29.212 8.55806 29.7163 7.92135C30.2206 7.28464 30.8439 6.77903 31.586 6.40449C32.3282 6.02996 33.1655 5.8427 34.098 5.8427C35.0495 5.8427 35.8821 6.02996 36.5957 6.40449C37.3094 6.77903 37.8993 7.28932 38.3655 7.93539C38.8318 8.58146 39.1838 9.32116 39.4217 10.1545C39.6596 10.9878 39.7785 11.8727 39.7785 12.809C39.7785 13.6517 39.6691 14.4897 39.4503 15.323C39.2314 16.1564 38.8936 16.9054 38.4369 17.5702C37.9802 18.235 37.395 18.7781 36.6814 19.1994C35.9677 19.6208 35.1066 19.8315 34.098 19.8315ZM43.4894 20.0562V11.882C43.4894 11.0955 43.6036 10.3277 43.832 9.57865C44.0603 8.82958 44.4124 8.16948 44.8881 7.59831C45.3639 7.02715 45.9681 6.57772 46.7008 6.25C47.4334 5.92228 48.3041 5.78652 49.3127 5.8427V5.2809C48.4373 5.26217 47.6713 5.3558 47.0148 5.5618C46.3582 5.76779 45.7921 6.04869 45.3163 6.40449C44.8406 6.7603 44.46 7.17696 44.1745 7.65449C43.8891 8.13202 43.6797 8.64232 43.5465 9.18539H43.4894V5.61798H42.9185V20.0562H43.4894ZM50.0263 12.9494H62.3008C62.3388 11.9569 62.2389 11.0019 62.001 10.0843C61.7632 9.16666 61.3826 8.35206 60.8592 7.64045C60.3359 6.92883 59.6603 6.35768 58.8325 5.92697C58.0047 5.49625 57.0199 5.2809 55.8781 5.2809C55.0598 5.2809 54.2605 5.44944 53.4803 5.78652C52.7 6.1236 52.015 6.61516 51.425 7.26124C50.8351 7.90731 50.3593 8.6985 49.9977 9.63483C49.6362 10.5712 49.4554 11.6386 49.4554 12.8371C49.4554 13.9045 49.5791 14.9017 49.8265 15.8287C50.0739 16.7556 50.4545 17.5609 50.9683 18.2444C51.4821 18.9279 52.1434 19.4569 52.9522 19.8315C53.761 20.206 54.7363 20.3839 55.8781 20.3652C57.5527 20.3652 58.961 19.9017 60.1028 18.9747C61.2446 18.0477 61.9202 16.7416 62.1295 15.0562H61.5586C61.3112 16.6479 60.6785 17.8418 59.6603 18.6376C58.6422 19.4335 57.3624 19.8315 55.821 19.8315C54.7743 19.8315 53.8894 19.6536 53.1663 19.2978C52.4431 18.9419 51.8532 18.4551 51.3965 17.8371C50.9397 17.2191 50.602 16.4934 50.3831 15.6601C50.1643 14.8268 50.0453 13.9232 50.0263 12.9494ZM61.7299 12.3876H50.0263C50.0834 11.3764 50.2737 10.4682 50.5972 9.66292C50.9207 8.85767 51.3441 8.16948 51.8675 7.59831C52.3908 7.02715 52.9998 6.59176 53.6944 6.29213C54.389 5.99251 55.1359 5.8427 55.9352 5.8427C56.8867 5.8427 57.724 6.01592 58.4472 6.36236C59.1703 6.7088 59.7745 7.18164 60.2598 7.7809C60.7451 8.38015 61.1114 9.07771 61.3588 9.8736C61.6062 10.6695 61.7299 11.5075 61.7299 12.3876ZM74.1471 9.88764H74.718C74.718 8.27715 74.2422 7.10674 73.2907 6.3764C72.3392 5.64606 71.0452 5.2809 69.4086 5.2809C68.4951 5.2809 67.7244 5.39326 67.0964 5.61798C66.4684 5.8427 65.9546 6.13296 65.5549 6.48876C65.1553 6.84457 64.8699 7.23783 64.6986 7.66854C64.5273 8.09925 64.4417 8.51123 64.4417 8.90449C64.4417 9.69101 64.5844 10.3183 64.8699 10.7865C65.1553 11.2547 65.6025 11.6198 66.2115 11.882C66.6301 12.0693 67.1059 12.2378 67.6387 12.3876C68.1716 12.5375 68.7901 12.6966 69.4942 12.8652C70.1222 13.015 70.7407 13.1648 71.3496 13.3146C71.9586 13.4644 72.4962 13.6657 72.9624 13.9185C73.4287 14.1713 73.8093 14.4944 74.1043 14.8876C74.3992 15.2809 74.5467 15.7959 74.5467 16.4326C74.5467 17.0506 74.3992 17.5749 74.1043 18.0056C73.8093 18.4363 73.4334 18.7875 72.9767 19.059C72.52 19.3305 72.0109 19.5272 71.4495 19.6489C70.8882 19.7706 70.341 19.8315 69.8082 19.8315C68.0764 19.8315 66.7491 19.4522 65.8261 18.6938C64.9032 17.9354 64.4417 16.7416 64.4417 15.1124H63.8708C63.8708 16.9288 64.3703 18.2584 65.3694 19.1011C66.3685 19.9438 67.8481 20.3652 69.8082 20.3652C70.4362 20.3652 71.0689 20.2949 71.7065 20.1545C72.344 20.014 72.9149 19.7846 73.4192 19.4663C73.9235 19.1479 74.3326 18.736 74.6466 18.2303C74.9606 17.7247 75.1176 17.1067 75.1176 16.3764C75.1176 15.6835 74.9797 15.1217 74.7037 14.691C74.4278 14.2603 74.0662 13.9045 73.619 13.6236C73.1718 13.3427 72.6675 13.1227 72.1061 12.9635C71.5447 12.8043 70.9786 12.6498 70.4076 12.5C69.6084 12.294 68.909 12.1161 68.3096 11.9663C67.7101 11.8165 67.1535 11.6386 66.6397 11.4326C66.1449 11.2266 65.75 10.9316 65.455 10.5478C65.1601 10.1639 65.0126 9.61611 65.0126 8.90449C65.0126 8.77341 65.0506 8.53933 65.1268 8.20225C65.2029 7.86517 65.3837 7.52341 65.6691 7.17697C65.9546 6.83052 66.3923 6.52154 66.9822 6.25C67.5721 5.97846 68.3809 5.8427 69.4086 5.8427C70.1127 5.8427 70.7549 5.9176 71.3354 6.06742C71.9158 6.21723 72.4153 6.45599 72.834 6.78371C73.2527 7.11142 73.5762 7.52809 73.8045 8.03371C74.0329 8.53933 74.1471 9.1573 74.1471 9.88764ZM87.3635 9.88764H87.9345C87.9345 8.27715 87.4587 7.10674 86.5072 6.3764C85.5557 5.64606 84.2616 5.2809 82.625 5.2809C81.7116 5.2809 80.9409 5.39326 80.3129 5.61798C79.6849 5.8427 79.1711 6.13296 78.7714 6.48876C78.3718 6.84457 78.0863 7.23783 77.9151 7.66854C77.7438 8.09925 77.6581 8.51123 77.6581 8.90449C77.6581 9.69101 77.8009 10.3183 78.0863 10.7865C78.3718 11.2547 78.819 11.6198 79.428 11.882C79.8466 12.0693 80.3224 12.2378 80.8552 12.3876C81.3881 12.5375 82.0065 12.6966 82.7107 12.8652C83.3387 13.015 83.9571 13.1648 84.5661 13.3146C85.1751 13.4644 85.7127 13.6657 86.1789 13.9185C86.6452 14.1713 87.0258 14.4944 87.3207 14.8876C87.6157 15.2809 87.7632 15.7959 87.7632 16.4326C87.7632 17.0506 87.6157 17.5749 87.3207 18.0056C87.0258 18.4363 86.6499 18.7875 86.1932 19.059C85.7365 19.3305 85.2274 19.5272 84.666 19.6489C84.1046 19.7706 83.5575 19.8315 83.0247 19.8315C81.2929 19.8315 79.9656 19.4522 79.0426 18.6938C78.1196 17.9354 77.6581 16.7416 77.6581 15.1124H77.0872C77.0872 16.9288 77.5868 18.2584 78.5859 19.1011C79.585 19.9438 81.0645 20.3652 83.0247 20.3652C83.6527 20.3652 84.2854 20.2949 84.9229 20.1545C85.5604 20.014 86.1313 19.7846 86.6356 19.4663C87.1399 19.1479 87.5491 18.736 87.8631 18.2303C88.1771 17.7247 88.3341 17.1067 88.3341 16.3764C88.3341 15.6835 88.1961 15.1217 87.9202 14.691C87.6442 14.2603 87.2827 13.9045 86.8355 13.6236C86.3883 13.3427 85.884 13.1227 85.3226 12.9635C84.7612 12.8043 84.195 12.6498 83.6241 12.5C82.8248 12.294 82.1255 12.1161 81.526 11.9663C80.9266 11.8165 80.37 11.6386 79.8561 11.4326C79.3614 11.2266 78.9665 10.9316 78.6715 10.5478C78.3765 10.1639 78.2291 9.61611 78.2291 8.90449C78.2291 8.77341 78.2671 8.53933 78.3432 8.20225C78.4194 7.86517 78.6001 7.52341 78.8856 7.17697C79.1711 6.83052 79.6087 6.52154 80.1987 6.25C80.7886 5.97846 81.5974 5.8427 82.625 5.8427C83.3292 5.8427 83.9714 5.9176 84.5518 6.06742C85.1323 6.21723 85.6318 6.45599 86.0505 6.78371C86.4691 7.11142 86.7926 7.52809 87.021 8.03371C87.2494 8.53933 87.3635 9.1573 87.3635 9.88764Z" fill="#222222"/>
</svg>
