<svg width="20" height="14" viewBox="0 0 20 14" fill="none" xmlns="http://www.w3.org/2000/svg">
<path fill-rule="evenodd" clip-rule="evenodd" d="M20 14V0H0V14H20ZM17.1329 11.1303V13.8541H3.09315V11.2762H3.11722L3.1883 11.254L8.4589 7.27482L10.0534 8.54155L11.4693 7.37533L17.1329 11.1303ZM17.1329 10.6487L11.7664 7.12884L17.1329 2.76858V10.6487ZM16.2408 0.145612L15.5146 0.795694L15.1697 1.11015L14.8486 1.42324L14.5154 1.71476L14.2063 2.00632L13.9088 2.2753L13.6347 2.54429L13.3492 2.79108L13.0874 3.03786L12.5997 3.49727L12.1352 3.91187L11.9216 4.10258L11.731 4.29296L11.529 4.45021L11.35 4.60675L11.0293 4.89864L10.8743 5.02172L10.7434 5.14542L10.6126 5.24524L10.505 5.35804L10.3031 5.51525L10.22 5.57063L10.1602 5.63833L10.0891 5.6718L10.0413 5.7169L9.98192 5.76134L3.93746 0.123374L16.2408 0.145612ZM8.14979 7.02804L3.09315 10.8165L3.10481 3.00403L8.14979 7.02804Z" fill="#BFBFBF"/>
</svg>
