<svg width="95" height="71" viewBox="0 0 95 71" fill="none" xmlns="http://www.w3.org/2000/svg">
<path d="M45.003 16.0779C40.1913 16.0779 36.2764 19.5653 36.2764 23.8516C36.2764 28.1379 40.1911 31.6253 45.003 31.6253C49.8148 31.6253 53.7294 28.138 53.7294 23.8516C53.7294 19.5651 49.8146 16.0779 45.003 16.0779ZM45.003 28.7605C41.9645 28.7605 39.4922 26.5583 39.4922 23.8514C39.4922 21.1445 41.9643 18.9425 45.003 18.9425C48.0414 18.9425 50.5136 21.1447 50.5136 23.8514C50.5136 26.5581 48.0412 28.7605 45.003 28.7605Z" fill="#EDEDED" fill-opacity="0.96"/>
<path d="M83.1729 13.7095C80.0192 13.7095 77.4534 15.9951 77.4534 18.8044C77.4534 21.6137 80.0192 23.8994 83.1729 23.8994C86.3265 23.8994 88.8923 21.6137 88.8923 18.8044C88.8921 15.9951 86.3263 13.7095 83.1729 13.7095ZM83.1729 21.0347C81.7924 21.0347 80.6692 20.0341 80.6692 18.8044C80.6692 17.5747 81.7923 16.5742 83.1729 16.5742C84.5535 16.5742 85.6765 17.5747 85.6765 18.8044C85.6763 20.0343 84.5533 21.0347 83.1729 21.0347Z" fill="#EDEDED" fill-opacity="0.96"/>
<path d="M87.7213 0.000819016L64.3391 0C60.7678 0 57.8625 2.58902 57.8625 5.77133V12.3471H48.2212C48.219 12.3471 48.2171 12.3469 48.2149 12.3469H13.1072C13.1032 12.3469 13.0991 12.3471 13.0947 12.3471H6.87171C3.08261 12.3471 0 15.0933 0 18.4685V55.2484C0 58.6238 3.08261 61.3698 6.87171 61.3698H31.4916L29.3208 69.2249C29.3189 69.2316 29.3182 69.2385 29.3165 69.2452C29.3077 69.2796 29.3007 69.3145 29.2946 69.3499C29.2917 69.367 29.2882 69.3838 29.2858 69.401C29.2814 69.435 29.2794 69.4696 29.2777 69.5046C29.2768 69.5222 29.2749 69.54 29.2748 69.5577C29.2748 69.5612 29.2742 69.5645 29.2742 69.5677C29.2742 69.6105 29.2772 69.6528 29.2812 69.6946C29.2819 69.7 29.2814 69.7054 29.2821 69.7108C29.2878 69.7633 29.2974 69.815 29.3093 69.8659C29.3108 69.8724 29.3132 69.8786 29.3149 69.8854C29.3261 69.9291 29.3392 69.9722 29.3546 70.0143C29.359 70.0263 29.3645 70.0383 29.3693 70.0502C29.3839 70.0863 29.3995 70.1218 29.4172 70.1566C29.4245 70.1709 29.4324 70.1851 29.4403 70.1992C29.458 70.2308 29.4766 70.262 29.4965 70.2921C29.5064 70.3071 29.5161 70.3218 29.5266 70.3364C29.5476 70.3657 29.5702 70.3941 29.5936 70.4219C29.6015 70.4314 29.6081 70.4418 29.6166 70.4513C29.6203 70.4552 29.6245 70.459 29.6282 70.4629C29.6565 70.4944 29.6865 70.5242 29.7176 70.5534C29.7259 70.5612 29.7334 70.5696 29.7421 70.5773C29.782 70.613 29.8238 70.6466 29.8677 70.6783C29.8793 70.6866 29.8915 70.694 29.9032 70.7022C29.9367 70.7251 29.9708 70.7473 30.0061 70.7679C30.0214 70.7768 30.0372 70.7848 30.0528 70.7932C30.0865 70.8113 30.1207 70.8287 30.1562 70.8445C30.1726 70.8518 30.189 70.8587 30.2055 70.8656C30.2418 70.8807 30.2784 70.8943 30.3161 70.9069C30.3327 70.9125 30.349 70.918 30.3656 70.9231C30.4046 70.9349 30.4443 70.9449 30.4844 70.9541C30.5008 70.9579 30.5166 70.9621 30.5328 70.9652C30.5753 70.9736 30.6184 70.98 30.6622 70.9851C30.6767 70.9867 30.691 70.9895 30.706 70.991C30.7639 70.9966 30.8226 71 30.882 71H50.2661H62.9923C63.8806 71 64.6001 70.3587 64.6001 69.5677C64.6001 68.7768 63.8804 68.1355 62.9923 68.1355H52.3175L54.187 61.3703L82.3083 61.3695C85.6986 61.3695 88.457 58.9134 88.457 55.8941V43.5038C91.6831 43.177 94.198 40.7319 94.198 37.7721V5.77084C94.1985 2.58902 91.2927 0.000819016 87.7213 0.000819016ZM90.9827 5.77084V7.45943H66.2226V5.77084C66.2226 4.16895 67.6857 2.86567 69.4841 2.86567H87.7213C89.5197 2.86534 90.9827 4.16862 90.9827 5.77084ZM66.2226 28.9888L66.2867 29.0406L70.5512 24.8611L78.8962 33.0382H66.2228V28.9888H66.2226ZM83.2419 33.0382L79.6183 29.4875L80.9323 28.1995L85.8684 33.0381L83.2419 33.0382ZM90.2136 33.0382L82.1223 25.1065C81.8175 24.8079 81.3853 24.6374 80.9323 24.6374C80.4794 24.6374 80.0472 24.8077 79.7423 25.1065L77.4452 27.358L71.7406 21.7681C71.4359 21.4697 71.0038 21.2992 70.5508 21.2992C70.098 21.2992 69.6659 21.4695 69.3612 21.7683L66.2226 24.8442V10.3238H90.9825V33.0381L90.2136 33.0382ZM61.0782 5.7715C61.0782 4.31105 62.2941 3.10201 63.8701 2.89845C63.3222 3.74512 63.0067 4.72537 63.0067 5.77101V37.7718C63.0067 38.8166 63.3216 39.7967 63.8692 40.643C62.2935 40.439 61.078 39.2311 61.078 37.7718V5.7715H61.0782ZM64.3391 43.5413L85.2417 43.5418V49.5911H56.722L42.3141 35.4671C42.0092 35.1685 41.5772 34.9981 41.1241 34.9981C40.6711 34.9981 40.2389 35.1684 39.9343 35.4671L35.0875 40.2179L24.3387 29.6886C24.0403 29.3964 23.6197 29.2267 23.1763 29.2202C22.7285 29.2189 22.3059 29.3703 21.9968 29.6535L10.1745 40.4775V17.824C10.1745 16.3854 11.4869 15.2149 13.1011 15.2119H57.8625V37.7718C57.8624 40.953 60.7678 43.5413 64.3391 43.5413ZM10.1744 44.5852L23.1094 32.7422L40.3056 49.5911H10.1744V44.5852ZM44.6512 49.5911L37.2605 42.3472L41.1239 38.5601L52.3768 49.591H44.6512V49.5911ZM3.21581 55.2484V18.4685C3.21581 16.6727 4.85582 15.2117 6.87171 15.2117H7.70422C7.229 15.9886 6.95855 16.8789 6.95855 17.8239V55.8935C6.95855 56.8385 7.22882 57.7283 7.70422 58.5049H6.87171C4.85582 58.5051 3.21581 57.0442 3.21581 55.2484ZM49.006 68.135H32.9338L34.8032 61.3698H50.8755L49.006 68.135ZM82.3089 58.5044H13.1072C11.49 58.5044 10.1744 57.3334 10.1744 55.8938V52.4558H85.2417V55.8938C85.2417 57.3331 83.9259 58.5044 82.3089 58.5044ZM87.7213 40.677L69.4716 40.6763C67.6789 40.6703 66.2225 39.3698 66.2225 37.7715V35.9028H90.9825V37.7715C90.9827 39.3737 89.5197 40.677 87.7213 40.677Z" fill="#EDEDED" fill-opacity="0.96"/>
</svg>
