<svg width="95" height="71" viewBox="0 0 95 71" fill="none" xmlns="http://www.w3.org/2000/svg">
<path d="M83.9958 0H10.2103C4.59675 0 0 3.46713 0 7.70068V63.2993C0 67.536 4.59675 71 10.2103 71H83.9876C89.6095 71 94.1979 67.5297 94.1979 63.2993V7.70068C94.2103 3.46713 89.6094 0 83.9958 0ZM81.3386 6.36265C83.9958 6.36265 86.1608 7.98805 86.1608 9.99667C86.1608 12.0053 84.0079 13.6307 81.3386 13.6307C78.669 13.6307 76.5164 12.0053 76.5164 9.99667C76.5164 7.98805 78.6774 6.36265 81.3386 6.36265ZM66.2937 6.35964C68.9549 6.35964 71.1201 7.98505 71.1201 9.99682C71.1201 12.0086 68.9591 13.6338 66.2937 13.6338C63.6283 13.6338 61.4673 12.0084 61.4673 9.99667C61.4673 7.9849 63.6323 6.35964 66.2937 6.35964ZM86.4807 64.3964H7.73773V18.847H86.4807V64.3964Z" fill="#EDEDED" fill-opacity="0.96"/>
<path d="M39.4103 45.4194H24.349V56.7666H39.4103V45.4194Z" fill="#EDEDED" fill-opacity="0.96"/>
<path d="M70.4804 45.4194H55.415V56.7666H70.4804V45.4194Z" fill="#EDEDED" fill-opacity="0.96"/>
<path d="M39.4103 26.9742H24.349V38.3182H39.4103V26.9742Z" fill="#EDEDED" fill-opacity="0.96"/>
<path d="M70.4804 26.9742H55.415V38.3182H70.4804V26.9742Z" fill="#EDEDED" fill-opacity="0.96"/>
</svg>
