<svg width="81" height="71" viewBox="0 0 81 71" xmlns="http://www.w3.org/2000/svg">
<path d="M54.2958 61.5617C53.8782 61.3194 53.5143 60.9946 53.225 60.6009C53.0914 60.4193 52.9786 60.2274 52.8851 60.029H5.42814V15.4253H69.8442V44.5499C71.2193 44.6683 72.3732 45.5296 72.8577 46.7089C73.2866 46.4848 73.7647 46.3462 74.2672 46.3039C74.6071 46.2757 74.9447 46.2959 75.2721 46.3576V4.31348C75.2721 1.93502 73.2432 0 70.7491 0H4.52339C2.02927 0 0 1.93502 0 4.31348V60.8919C0 63.2704 2.02927 65.2052 4.52339 65.2052H53.8835C53.4983 64.4614 53.407 63.6217 53.6336 62.8139C53.7644 62.3492 53.9904 61.9254 54.2958 61.5617ZM64.8769 7.24319C64.8769 6.36362 65.6246 5.65041 66.547 5.65041H68.2172C69.1398 5.65041 69.8874 6.36344 69.8874 7.24319V9.04827C69.8874 9.92784 69.1396 10.6409 68.2172 10.6409H66.547C65.6244 10.6409 64.8769 9.92784 64.8769 9.04827V7.24319ZM57.1104 7.24319C57.1104 6.36362 57.8582 5.65041 58.7806 5.65041H60.451C61.3736 5.65041 62.1211 6.36344 62.1211 7.24319V9.04827C62.1211 9.92784 61.3734 10.6409 60.451 10.6409H58.7806C57.8582 10.6409 57.1104 9.92784 57.1104 9.04827V7.24319ZM49.3438 7.24319C49.3438 6.36362 50.0918 5.65041 51.014 5.65041H52.6842C53.6068 5.65041 54.3545 6.36344 54.3545 7.24319V9.04827C54.3545 9.92784 53.6068 10.6409 52.6842 10.6409H51.014C50.0918 10.6409 49.3438 9.92784 49.3438 9.04827V7.24319Z" fill="#EDEDED" fill-opacity="0.96"/>
<path d="M80.5863 58.5242L80.0844 55.8101C80.0166 55.4446 79.6514 55.2005 79.2677 55.2649L76.7365 55.6903C76.4327 55.0103 76.0446 54.3735 75.584 53.7906L77.2373 51.9114C77.3574 51.7752 77.416 51.5986 77.3998 51.4209C77.3833 51.2432 77.2935 51.0792 77.1503 50.9644L74.9366 49.1928C74.7934 49.0783 74.6079 49.0226 74.4217 49.0382C74.2353 49.0538 74.0633 49.1392 73.9432 49.2757L72.2915 51.1535C71.6134 50.8241 70.8881 50.57 70.1282 50.4024V47.9515C70.1282 47.5803 69.8125 47.2791 69.4233 47.2791H66.5328C66.1438 47.2791 65.8279 47.5803 65.8279 47.9515V50.4024C65.0676 50.5699 64.3431 50.8241 63.6646 51.1535L62.0125 49.2759C61.7622 48.9915 61.3177 48.9546 61.0193 49.193L58.8054 50.9644C58.6622 51.0792 58.5726 51.2432 58.556 51.4209C58.5399 51.5986 58.5983 51.7754 58.7184 51.9119L60.3719 53.7907C59.912 54.3735 59.5232 55.0107 59.2194 55.6904L56.6882 55.2649C56.3055 55.2007 55.9395 55.4446 55.8715 55.8101L55.3698 58.5242C55.3374 58.6997 55.3794 58.8802 55.4863 59.0264C55.594 59.1727 55.7569 59.272 55.9412 59.303L58.4743 59.7287C58.5155 60.477 58.6522 61.201 58.8722 61.8904L56.6458 63.1157C56.4838 63.2045 56.3657 63.3516 56.3172 63.5237C56.2688 63.6959 56.2944 63.8793 56.3876 64.0337L57.8327 66.4204C57.9257 66.5749 58.0801 66.6875 58.2605 66.7336C58.3205 66.7489 58.3818 66.7564 58.443 66.7564C58.5656 66.7564 58.6871 66.7261 58.7954 66.6664L61.0235 65.4397C61.5475 65.975 62.139 66.4493 62.7854 66.8505L61.9056 69.1552C61.8419 69.3229 61.8501 69.5077 61.9292 69.6693C62.0083 69.8309 62.1513 69.9559 62.3269 70.0167L65.0423 70.959C65.1202 70.9861 65.202 71 65.2835 71C65.3853 71 65.4876 70.979 65.5818 70.9369C65.7513 70.8617 65.882 70.7251 65.9459 70.5575L66.8255 68.2528C67.2026 68.2963 67.5865 68.3188 67.9759 68.3188C68.3654 68.3188 68.7492 68.296 69.1263 68.2528L70.0062 70.5575C70.0699 70.7251 70.2012 70.8617 70.3702 70.9369C70.4643 70.9788 70.5662 71 70.6685 71C70.7499 71 70.8316 70.9865 70.9096 70.959L73.6254 70.0167C73.8006 69.9559 73.9438 69.8305 74.0227 69.6693C74.1017 69.5077 74.1102 69.3229 74.0463 69.1552L73.1665 66.8509C73.8123 66.4497 74.4038 65.975 74.9284 65.44L77.1565 66.6668C77.2645 66.7261 77.3862 66.7568 77.5089 66.7568C77.5699 66.7568 77.6317 66.7489 77.6914 66.7339C77.872 66.6878 78.0259 66.5749 78.1192 66.4208L79.5642 64.0337C79.6575 63.8796 79.683 63.6959 79.6347 63.5237C79.5861 63.352 79.4681 63.2049 79.3061 63.1157L77.0801 61.8908C77.3 61.2012 77.4363 60.4772 77.4776 59.729L80.0107 59.3032C80.1949 59.2722 80.3584 59.1728 80.4655 59.0266C80.5767 58.8802 80.6187 58.6997 80.5863 58.5242ZM67.9782 62.8372C65.8373 62.8372 64.1013 61.1818 64.1013 59.1401C64.1013 57.0984 65.8375 55.4432 67.9782 55.4432C70.1194 55.4432 71.8554 57.0984 71.8554 59.1401C71.8554 61.1818 70.1194 62.8372 67.9782 62.8372Z" fill="#EDEDED" fill-opacity="0.96"/>
<path d="M31.6098 40.15C31.6098 39.2804 31.0753 38.4815 30.2479 38.1151L22.6753 34.7601L30.2481 31.4047C31.0753 31.0379 31.6098 30.2392 31.6098 29.3699V29.3115C31.6098 28.541 31.2031 27.8337 30.5225 27.4202C30.146 27.1909 29.7074 27.0696 29.2547 27.0696C28.9134 27.0696 28.5708 27.1411 28.2643 27.2769L16.1578 32.6453C15.3308 33.0121 14.7966 33.8108 14.7966 34.6799V34.8404C14.7966 35.7084 15.3306 36.5066 16.158 36.8752L28.2656 42.2441C28.5787 42.3823 28.9121 42.4524 29.2564 42.4524C29.7051 42.4524 30.1423 42.3308 30.5225 42.1003C31.2035 41.6852 31.61 40.9784 31.61 40.2088L31.6098 40.15Z" fill="#EDEDED" fill-opacity="0.96"/>
<path d="M43.5549 21.5995C43.1133 21.023 42.4029 20.6789 41.6546 20.6789H41.5943C40.5668 20.6789 39.6658 21.3057 39.3528 22.2375L31.3762 45.8047C31.1492 46.4851 31.277 47.2346 31.7181 47.8109C32.1597 48.387 32.87 48.7313 33.6183 48.7313H33.6788C34.706 48.7313 35.6063 48.1043 35.919 47.1727L43.8946 23.6073C44.1238 22.9274 43.9967 22.1769 43.5549 21.5995Z" fill="#EDEDED" fill-opacity="0.96"/>
<path d="M59.1144 32.6451L47.0077 27.2768C46.7022 27.1413 46.3602 27.0698 46.0189 27.0698C45.5663 27.0698 45.1276 27.1907 44.7512 27.4197C44.0695 27.8339 43.6628 28.541 43.6628 29.3115V29.3699C43.6628 30.2385 44.1969 31.0374 45.0249 31.4056L52.5973 34.7602L45.0247 38.1151C44.1973 38.4815 43.6628 39.2804 43.6628 40.15V40.2088C43.6628 40.9784 44.0695 41.685 44.7508 42.1004C45.1297 42.3307 45.5673 42.4524 46.0166 42.4524C46.3605 42.4524 46.6935 42.3823 47.0087 42.2436L59.116 36.8746C59.9426 36.5069 60.4764 35.7086 60.4764 34.8406V34.6801C60.4758 33.8108 59.9416 33.0121 59.1144 32.6451Z" fill="#EDEDED" fill-opacity="0.96"/>
</svg>
