<svg width="70" height="90" viewBox="0 0 70 90" fill="none" xmlns="http://www.w3.org/2000/svg">
<path d="M0 14.9979C0 23.2843 7.83846 30.0021 17.5 30.0021H35V0H17.5C7.83846 0 0 6.71786 0 14.9979Z" fill="#F24E1E"/>
<path d="M35 0V30.0021H52.5C62.1692 30.0021 70 23.2843 70 14.9979C70 6.71786 62.1692 0 52.5 0H35Z" fill="#FF7262"/>
<path d="M0 45C0 53.2864 7.83846 59.9979 17.5 59.9979H35V30.0021H17.5C7.83846 30.0021 0 36.7071 0 45Z" fill="#A259FF"/>
<path d="M35 45C35 36.7136 42.8385 30.0021 52.5 30.0021C62.1692 30.0021 70 36.7071 70 45C70 53.2864 62.1692 59.9979 52.5 59.9979C42.8462 59.9979 35 53.2929 35 45Z" fill="#1ABCFE"/>
<path d="M0 75.0021C0 66.7157 7.83846 59.9979 17.5 59.9979H35V75.0021C35 83.2821 27.1615 90 17.5 90C7.83846 90 0 83.2821 0 75.0021Z" fill="#0ACF83"/>
</svg>
