<svg width="90" height="60" viewBox="0 0 90 60" fill="none" xmlns="http://www.w3.org/2000/svg">
<path d="M61.5188 6.07451C61.0875 6.07451 60.795 6.12606 60.4913 6.19601V6.24387H60.5438C60.7463 6.62676 61.0912 6.90657 61.3462 7.24897C61.5487 7.6429 61.7213 8.03684 61.9238 8.4271L61.9762 8.37188C62.3288 8.12889 62.5013 7.73863 62.5013 7.14588C62.3512 6.97284 62.3288 6.7998 62.2012 6.63044C62.0513 6.38377 61.7287 6.26228 61.5262 6.06715L61.5188 6.07451ZM21.6375 54.6505H18.1612C18.0487 48.8997 17.7 43.495 17.1488 38.4143H17.1187L11.8313 54.6505H9.1875L3.9375 38.4143H3.9C3.51375 43.2852 3.27 48.6973 3.16875 54.6505H0C0.20625 47.4124 0.72 40.6233 1.5375 34.2909H5.85L10.8562 49.2532H10.8863L15.9375 34.2909H20.0437C20.9513 41.7094 21.4837 48.5021 21.6487 54.6505H21.6375ZM36.7012 39.6293C35.2837 47.1583 33.4163 52.6366 31.1063 56.0496C29.2987 58.6856 27.3188 60 25.17 60C24.5963 60 23.895 59.8306 23.0475 59.4919V57.6732C23.46 57.7358 23.9475 57.7689 24.495 57.7689C25.5 57.7689 26.3062 57.4928 26.9212 56.9516C27.66 56.2889 28.0275 55.5452 28.0275 54.7242C28.0275 54.1535 27.7388 52.9938 27.165 51.2487L23.3625 39.6293H26.775L29.5013 48.318C30.1163 50.2914 30.375 51.6684 30.27 52.4526C31.77 48.5353 32.8125 44.2535 33.4012 39.6293H36.7012ZM82.92 54.6505H73.0575V34.2909H76.3763V52.147H82.92V54.6505ZM70.47 55.1475L66.66 53.3067C66.9975 53.0269 67.3238 52.725 67.6162 52.3863C69.24 50.5234 70.0462 47.7547 70.0462 44.0915C70.0462 37.354 67.3538 33.9816 61.965 33.9816C59.325 33.9816 57.2625 34.8358 55.7775 36.5477C54.165 38.418 53.355 41.1719 53.355 44.8131C53.355 48.3917 54.0675 51.0204 55.5075 52.6919C56.82 54.2014 58.7962 54.9561 61.4438 54.9561C62.4338 54.9561 63.3413 54.8346 64.1625 54.5953L69.1312 57.4376L70.4812 55.1475H70.47ZM58.125 50.5749C57.2812 49.2495 56.8613 47.1141 56.8613 44.1835C56.8613 39.055 58.4513 36.4888 61.6238 36.4888C63.285 36.4888 64.5112 37.1037 65.2875 38.3297C66.1275 39.6624 66.5475 41.7757 66.5475 44.6732C66.5475 49.8423 64.9575 52.4342 61.785 52.4342C60.1162 52.4342 58.8975 51.8193 58.1175 50.5933L58.125 50.5749ZM51.9075 49.0102C51.9075 50.7406 51.2625 52.1617 49.9725 53.2662C48.6825 54.3707 46.9613 54.923 44.7825 54.923C42.7463 54.923 40.7925 54.2897 38.8838 53.0269L39.7725 51.2744C41.415 52.0844 42.8962 52.482 44.235 52.482C45.48 52.482 46.4588 52.2133 47.1713 51.6721C47.8763 51.1308 48.2962 50.3687 48.2962 49.4078C48.2962 48.1929 47.4338 47.162 45.8662 46.2968C44.4113 45.5126 41.505 43.8779 41.505 43.8779C39.9225 42.7477 39.135 41.5364 39.135 39.5446C39.135 37.8879 39.7238 36.5625 40.8975 35.55C42.0788 34.5265 43.5975 34.0221 45.4725 34.0221C47.3925 34.0221 49.1475 34.5228 50.7225 35.5316L49.9237 37.2841C48.5737 36.7244 47.2425 36.4373 45.9338 36.4373C44.8725 36.4373 44.0513 36.6876 43.4813 37.1957C42.9075 37.6964 42.5513 38.337 42.5513 39.1249C42.5513 40.3325 43.4287 41.3707 45.0487 42.2543C46.5225 43.0459 49.5 44.721 49.5 44.721C51.1237 45.844 51.93 47.0405 51.93 49.0212L51.9075 49.0102ZM87.09 27.465C85.0838 27.4135 83.5275 27.6123 82.2262 28.1572C81.8512 28.3045 81.2513 28.3045 81.1987 28.772C81.405 28.9672 81.435 29.2875 81.6113 29.5599C81.9113 30.0533 82.4287 30.7123 82.9087 31.0584C83.4337 31.4633 83.9587 31.8536 84.51 32.1997C85.485 32.7887 86.5913 33.1385 87.5475 33.7312C88.0913 34.0773 88.6462 34.5154 89.1975 34.8836C89.4712 35.0677 89.6475 35.399 90 35.5169V35.4432C89.8275 35.2223 89.775 34.902 89.6063 34.6553C89.355 34.4087 89.1038 34.1878 88.8562 33.9448C88.1287 32.9876 87.225 32.1518 86.25 31.4597C85.4475 30.9221 83.6925 30.1711 83.3625 29.2691L83.3137 29.2175C83.8612 29.1697 84.5137 28.9745 85.0387 28.8273C85.89 28.6064 86.67 28.6542 87.5513 28.437C87.9488 28.3376 88.35 28.2161 88.7513 28.0909V27.87C88.3012 27.4282 87.9638 26.8281 87.4987 26.4158C86.2237 25.3297 84.81 24.273 83.3587 23.3857C82.5713 22.8924 81.5737 22.5758 80.745 22.1561C80.445 22.0088 79.9425 21.9352 79.77 21.6885C79.32 21.151 79.0575 20.4367 78.7387 19.7961C78.0187 18.4413 77.3138 16.9428 76.6875 15.5143C76.2375 14.5497 75.9638 13.5888 75.4125 12.7052C72.825 8.51915 70.0238 5.98247 65.715 3.50102C64.7887 2.98559 63.6787 2.76469 62.505 2.49224C61.8787 2.46279 61.2525 2.41861 60.63 2.39284C60.2175 2.2198 59.82 1.75223 59.4675 1.52764C58.0425 0.644042 54.3525 -1.27043 53.3025 1.26256C52.6275 2.86041 54.3037 4.43617 54.885 5.24614C55.3162 5.80943 55.86 6.45372 56.16 7.08697C56.3363 7.51405 56.385 7.95217 56.5612 8.39765C56.9588 9.48006 57.3375 10.6876 57.8625 11.7001C58.1362 12.2155 58.4362 12.7568 58.7887 13.2206C58.9912 13.4894 59.3363 13.6146 59.415 14.0564C59.0625 14.5571 59.04 15.2861 58.8375 15.8972C57.9375 18.6842 58.29 22.1303 59.565 24.181C59.9662 24.7921 60.9225 26.147 62.2012 25.6279C63.3262 25.1861 63.0787 23.787 63.4012 22.5537C63.4762 22.2592 63.4275 22.064 63.5812 21.8652V21.9204C63.9338 22.6126 64.2862 23.2716 64.6087 23.9638C65.3812 25.1714 66.7313 26.4231 67.86 27.2589C68.46 27.7007 68.9362 28.4665 69.6862 28.7389V28.6653H69.63C69.4688 28.4517 69.255 28.3486 69.0525 28.1756C68.6025 27.7338 68.0962 27.1926 67.74 26.7029C66.69 25.3149 65.7637 23.7944 64.9388 22.2187C64.5262 21.4455 64.1813 20.6134 63.8512 19.8513C63.7013 19.5568 63.7013 19.115 63.45 18.9677C63.075 19.5053 62.5238 19.9728 62.25 20.6355C61.7738 21.6959 61.725 22.9992 61.545 24.354C61.4438 24.3798 61.4925 24.354 61.4438 24.4056C60.6413 24.2141 60.3675 23.3968 60.0675 22.712C59.3175 20.9632 59.1938 18.1541 59.8425 16.1402C60.0187 15.6248 60.7687 13.9975 60.4688 13.5041C60.3112 13.0366 59.8162 12.7678 59.5425 12.3886C59.2163 11.9321 58.8675 11.3393 58.6425 10.8165C58.0425 9.43956 57.7425 7.91535 57.09 6.5384C56.79 5.90147 56.265 5.23509 55.8375 4.6497C55.3613 3.987 54.8363 3.51943 54.4575 2.73523C54.3338 2.46647 54.1575 2.02099 54.3563 1.72645C54.4087 1.52764 54.5137 1.45033 54.7087 1.3951C55.0387 1.13002 55.965 1.4761 56.2912 1.62337C57.2175 1.99153 57.9975 2.33761 58.7738 2.85305C59.1263 3.09604 59.505 3.56361 59.955 3.6851H60.48C61.2825 3.85814 62.1863 3.73665 62.9363 3.95387C64.2675 4.37358 65.4675 4.98474 66.5438 5.64744C69.8288 7.69445 72.5287 10.5993 74.3625 14.0637C74.6625 14.6307 74.7937 15.1498 75.0675 15.7389C75.5925 16.9539 76.2412 18.1799 76.7738 19.3543C77.2988 20.514 77.805 21.6959 78.5587 22.6568C78.9337 23.1722 80.4413 23.441 81.1162 23.7097C81.615 23.9306 82.3913 24.1331 82.8412 24.4019C83.7038 24.9173 84.5437 25.5064 85.3538 26.0734C85.7663 26.3532 87.015 26.968 87.09 27.465Z" fill="black"/>
</svg>
