<svg width="20" height="16" viewBox="0 0 20 16" fill="none" xmlns="http://www.w3.org/2000/svg">
<path d="M15.4683 9.0192C14.5502 9.0192 13.6877 8.60927 12.9065 7.93818L13.0952 6.99138L13.1015 6.9537C13.274 5.94805 13.8077 4.25744 15.4676 4.25744C16.7114 4.25744 17.7201 5.32523 17.7201 6.6403C17.7201 7.95207 16.7107 9.01986 15.4676 9.01986L15.4683 9.0192ZM15.4683 1.84615C13.3527 1.84615 11.7084 3.2994 11.0415 5.69284C10.0259 4.0776 9.25096 2.13574 8.80223 0.5H6.52355V6.77055C6.52042 8.01025 5.57295 9.01259 4.40111 9.01589C3.22927 9.01259 2.2818 8.00694 2.27868 6.77055V0.5H0V6.77055C0 9.3392 1.97556 11.4437 4.40111 11.4437C6.82916 11.4437 8.80223 9.33986 8.80223 6.77055V5.71995C9.24471 6.69452 9.78844 7.68628 10.449 8.56101L9.05284 15.5H11.3834L12.3959 10.4652C13.2815 11.0642 14.3002 11.4431 15.4689 11.4431C17.9688 11.4431 20 9.28036 20 6.63898C20 3.99429 17.9688 1.84548 15.4689 1.84548L15.4683 1.84615Z" fill="#BFBFBF"/>
</svg>
