<svg width="652" height="595" viewBox="0 0 652 595" fill="none" xmlns="http://www.w3.org/2000/svg">
<path fill-rule="evenodd" clip-rule="evenodd" d="M428.5 203.5C511.915 207.313 528.569 62.4157 579.5 124.5C626.591 181.904 595.19 121.165 608.642 192.49C619.456 249.832 659.817 300.697 650.659 358.293C640.513 422.101 608.166 482.993 555.8 524.816C500.954 568.619 428.312 605.425 357.65 592.309C289.162 579.597 267.827 496.227 209.312 460.504C145.289 421.418 33.6694 442.839 4.40462 376.652C-24.2639 311.812 101.716 222.447 120.5 154.5C141.308 79.2337 100.146 72.5085 153.5 13.0001C262 -57.5 342.723 199.58 428.5 203.5Z" fill="url(#paint0_linear_24_472)"/>
<defs>
<linearGradient id="paint0_linear_24_472" x1="509.55" y1="92.1515" x2="111.659" y2="425.763" gradientUnits="userSpaceOnUse">
<stop stop-color="#2E0043"/>
<stop offset="1" stop-color="#70004A"/>
</linearGradient>
</defs>
</svg>
