<svg width="695" height="750" viewBox="0 0 695 750" fill="none" xmlns="http://www.w3.org/2000/svg">
<path fill-rule="evenodd" clip-rule="evenodd" d="M381.718 -54.3934C470.498 -50.0646 563.886 -16.207 618.093 54.2836C668.213 119.46 634.536 212.007 648.853 292.99C660.363 358.096 703.32 415.848 693.573 481.242C682.774 553.69 648.347 622.827 592.612 670.313C534.239 720.047 456.925 761.836 381.718 746.945C308.824 732.511 286.117 637.854 223.839 597.293C155.698 552.915 36.8993 577.237 5.75224 502.087C-24.7602 428.468 75.0965 363.799 95.0891 286.652C117.235 201.194 71.207 97.953 127.992 30.387C186.823 -39.6127 290.424 -58.8447 381.718 -54.3934Z" fill="#780150" fill-opacity="0.17"/>
</svg>
